<svg xmlns="http://www.w3.org/2000/svg" viewBox="0 0 180 180">
    <path fill="#9ecd69"
        d="M78.222 170.268c.962-.251 2.537-.251 3.5 0 .962.252.175.458-1.75.458s-2.713-.206-1.75-.458zm14.512-.018c1.243-.239 3.043-.23 4 .02.956.25-.062.447-2.262.435-2.2-.01-2.982-.215-1.738-.455zm-21.95-.976c.722-.288 1.585-.253 1.917.08.332.332-.258.568-1.312.525-1.165-.048-1.402-.285-.605-.605zm31 0c.722-.288 1.585-.253 1.917.08.332.332-.258.568-1.312.525-1.165-.048-1.402-.285-.605-.605zm-18.562-1.045c2.062-.216 5.437-.216 7.5 0 2.062.216.375.392-3.75.392s-5.813-.176-3.75-.392zm23.562.046c.722-.29 1.585-.254 1.917.078.332.333-.258.57-1.312.526-1.165-.048-1.402-.285-.605-.605zm-34-1c.722-.29 1.585-.254 1.917.078.332.333-.258.57-1.312.526-1.165-.048-1.402-.285-.605-.605zm27 0c.722-.29 1.585-.254 1.917.078.332.333-.258.57-1.312.526-1.165-.048-1.402-.285-.605-.605zm-14.426-5.083c-.632-.417-.809-1.587-.409-2.706.625-1.748.764-1.662 1.225.75.286 1.497.47 2.715.41 2.706-.062-.008-.613-.346-1.226-.75zm-13.136-1.266c-1.238-.497-2.25-1.17-2.25-1.495 0-.325.45-.313 1 .027s1 .141 1-.441c0-.583.45-1.06 1-1.06s1 .676 1 1.5c0 .826.476 1.5 1.059 1.5.582 0 .738-.519.345-1.154-.445-.721-.274-.883.458-.43.644.397.912 1.142.595 1.654-.684 1.106-1.238 1.093-4.207-.1zm8.257.043c-.35-.567.051-.734.94-.393 1.733.665 2.05 1.382.612 1.382-.518 0-1.216-.445-1.552-.989zm18.493.605c0-.21.9-.619 2.001-.907 1.101-.287 1.75-.115 1.441.384-.538.87-3.442 1.312-3.442.523zm26.083.019c.23-.2 1.542-.9 2.917-1.555 2.357-1.123 2.389-1.102.559.364-1.593 1.277-4.848 2.392-3.476 1.191zm-34.967-1.944c-.073-1.142-.578-1.549-1.366-1.104-.993.56-.996.432-.017-.624 1.533-1.653 2.6-.728 1.971 1.708-.45 1.744-.478 1.745-.588.02zm1.884-.191c0-.825.375-1.5.833-1.5.459 0 .834.675.834 1.5s-.375 1.5-.834 1.5c-.458 0-.833-.675-.833-1.5zm3.079-.084c.048-1.165.285-1.402.604-.604.289.722.253 1.584-.079 1.917-.332.332-.569-.259-.525-1.313zm8.475.048c-1.51-1.142-1.679-1.74-.75-2.668.928-.928 1.196-.802 1.196.563 0 1.075.449 1.481 1.154 1.045.683-.422.885-.276.494.356-.363.588-.095 1.297.596 1.575.69.279.806.528.256.554-.55.026-1.876-.615-2.946-1.425zm-38.554-.523c0-.583.45-.781 1-.441s1 .816 1 1.059c0 .242-.45.44-1 .44s-1-.476-1-1.058zm33.158-.941c0-1.375.227-1.938.504-1.25.278.687.278 1.812 0 2.5-.277.687-.504.125-.504-1.25zm9.107-.38c-.323-.524-.024-.59.687-.15.932.576 1.106.158.664-1.595-.329-1.307-.331-1.79-.006-1.072.45.99.94.87 2.046-.5 1.345-1.668 1.375-1.64.4.38-1.394 2.885-1.355 3.091.694 3.632.962.254.477.41-1.08.348-1.556-.062-3.088-.531-3.404-1.043zm-49.92-1.164c-.326-.848-.369-1.766-.096-2.04.273-.272.737.422 1.03 1.544.623 2.383-.069 2.75-.934.496zm3.655 1.135c0-.19.675-.907 1.5-1.591.864-.718 1.5-.815 1.5-.23 0 .559-.675 1.275-1.5 1.591-.825.317-1.5.42-1.5.23zm13.5-.591c-.34-.55-.142-1 .44-1 .583 0 1.06.45 1.06 1s-.199 1-.441 1c-.243 0-.72-.45-1.06-1zm37.5-.378c0-.208.787-.995 1.75-1.75 1.586-1.244 1.621-1.208.377.378-1.306 1.665-2.127 2.195-2.127 1.372zm4-1.181c0-.858.457-1.277 1.016-.931.56.345.758 1.047.441 1.559-.857 1.387-1.457 1.128-1.457-.628zm-61.667-.897c0-.801.383-1.22.85-.931.467.288.59.944.274 1.456-.808 1.308-1.124 1.16-1.124-.525zm64.083-1.023c-.788-3.14-.025-4.236 2.792-4.009 1.26.101 2.664-.31 3.118-.914.53-.706.68-.562.417.402-.226.825-.822 1.506-1.326 1.515-.505.008-1.441.349-2.082.756-.64.408-1.392.176-1.67-.515-.314-.777-.537-.608-.586.444-.044.935.645 2.106 1.53 2.6 1.473.825 1.473.954.01 1.515-1.122.431-1.779-.103-2.203-1.794zm-57.863.564a1.117 1.117 0 01.361-1.533 1.117 1.117 0 011.533.362c.322.521.16 1.21-.362 1.533-.52.322-1.21.159-1.532-.362zm-10.553-.478c0-.217.698-.661 1.552-.989.89-.341 1.291-.174.94.393-.586.95-2.492 1.405-2.492.596zm6.812-1.29c.722-.29 1.585-.254 1.917.078.332.333-.258.569-1.312.526-1.165-.048-1.402-.285-.605-.605zm39.842-.067c-.255-.413.8-.75 2.346-.75 1.545 0 2.6.337 2.345.75-.255.412-1.31.75-2.345.75-1.035 0-2.09-.338-2.346-.75zm18.846-.25c.34-.55.816-1 1.059-1 .242 0 .44.45.44 1s-.476 1-1.058 1c-.583 0-.781-.45-.441-1zm10.726-.58c.95-.99 1.941-1.586 2.205-1.323.263.263-.514 1.074-1.727 1.802-2.106 1.265-2.127 1.244-.478-.478zm-79.016-1.021c-.709-.77-.848-1.4-.309-1.4 1.039 0 2.542 1.903 1.949 2.466-.193.183-.93-.297-1.64-1.066zm99.29-4.4c3.265-3.3 6.162-6 6.437-6 .275 0-2.172 2.7-5.437 6-3.266 3.3-6.163 6-6.438 6-.275 0 2.172-2.7 5.438-6zm-120.534-.75l-5.466-5.75 5.75 5.466c3.162 3.007 5.75 5.594 5.75 5.75 0 .743-.956-.123-6.034-5.465zm25.474 4.653c-.866-1.4 1.316-1.901 2.43-.558.83.998.724 1.322-.43 1.322-.84 0-1.74-.344-2-.764zm77.432-1.594c-.782-.964-.864-1.388-.191-.984.65.39 1.463.25 1.809-.308.588-.952-.823-1.475-2.91-1.078-.505.096-.337-.526.373-1.382.71-.856 2.163-1.556 3.228-1.556 1.065 0 1.659-.45 1.319-1-.978-1.582 1.12-1.163 2.5.5 1.876 2.26 3.23 1.8 1.919-.652-.97-1.811-.906-2.057.4-1.556.853.327 1.77.058 2.037-.599.267-.656.521-.206.565 1 .105 2.925-3.8 5.787-5.339 3.913-.715-.87-1.93-1.06-3.582-.561-2.29.692-2.03.987 1.167 1.33.641.068 1.364.718 1.606 1.443.279.837-.239 1.202-1.417 1-1.073-.184-1.75.209-1.606.932.341 1.707-.247 1.568-1.878-.442zm16.628-4.308c2.148-2.2 4.13-4 4.406-4 .275 0-1.258 1.8-3.406 4s-4.131 4-4.406 4c-.275 0 1.258-1.8 3.406-4zm-117.095.75l-1.905-2.25 2.25 1.905c2.114 1.79 2.705 2.595 1.905 2.595-.19 0-1.202-1.013-2.25-2.25zm56.467-1.5c-1.244-1.586-1.208-1.622.378-.378.962.755 1.75 1.542 1.75 1.75 0 .823-.821.293-2.128-1.372zm-45.865-1.265c.508-.947.6-2.079.208-2.514-.393-.436-.145-.464.551-.063.697.402 1.008 1.149.691 1.66-.316.513.351.932 1.484.932 3.235 0 2.4 1.487-.9 1.604-2.5.088-2.814-.161-2.034-1.619zm102.372-2.365c.126-.86.509-1.842.85-2.183.342-.341.518.082.391.942-.126.86-.508 1.842-.85 2.183-.34.342-.517-.082-.39-.942zm-4.38-2.62c1.164-2.174 2.53-2.57 3.494-1.012.35.567-.051.735-.941.393-1.006-.386-1.552-.03-1.552 1.012 0 .883-.466 1.607-1.035 1.607-.702 0-.69-.644.035-2zm-30.92-.584c.048-1.165.285-1.402.604-.604.289.722.253 1.584-.079 1.917-.332.332-.569-.259-.525-1.313zm-73.867-2.448c-1.79-2.868-1.473-3.786.39-1.126.881 1.258 1.426 2.462 1.212 2.677-.214.214-.935-.484-1.602-1.551zm111.33 1.1c-.316-.511-.048-1.256.596-1.654.698-.431.904-.292.51.346-.363.588-.095 1.297.596 1.575.899.363.917.53.065.586-.655.043-1.45-.34-1.766-.852zm-118.137-2.24c-1.048-1.195-1.39-1.872-.76-1.506.63.366 1.4 0 1.712-.811a1.586 1.586 0 012.042-.912c2.018.775.85 3.4-1.232 2.768-.917-.278-.542.185.833 1.028 1.706 1.047 1.994 1.545.905 1.57-.877.019-2.452-.943-3.5-2.137zm50.036.616c-1.864-1.493-1.852-1.511.309-.464 1.237.6 2.25 1.3 2.25 1.555 0 .765-.519.544-2.559-1.09zm32.309-.443c1.533-1.72 1.728-17.598.225-18.343-.564-.28-.451-.393.25-.253.885.178 1.362 2.857 1.562 8.772.243 7.218.014 8.723-1.5 9.871-1.525 1.157-1.604 1.15-.537-.047zm34.25-.942c0-.518.445-1.216.988-1.552.567-.35.735.05.393.94-.664 1.733-1.381 2.05-1.381.612zm3.459-.126c-.363-.587-.42-1.307-.126-1.6.717-.716 2.667.546 2.667 1.726 0 1.278-1.727 1.192-2.541-.126zm2.51-2.964c-1.657-1.657-1.854-2.403-.931-3.515.905-1.091 1.642-1.16 3.238-.307 1.672.895 2.32.76 3.395-.712.73-1 1.329-1.337 1.329-.749 0 1.998-2.774 3.408-5.404 2.748-3.01-.755-3.25-.231-.95 2.068 1.328 1.329 1.806 1.39 2.484.321.577-.91.844-.952.855-.132.028 2.246-1.913 2.38-4.016.278zm-36.97-7.315c0-5.087-.46-8.715-1.2-9.454-1.578-1.579-3.115-1.544-2.198.05.396.687.385.95-.024.583-.41-.367-.594-.882-.41-1.145.183-.263-.524-1.426-1.572-2.583-1.408-1.556-3.104-2.107-6.5-2.111l-4.595-.006-.143-3.868c-.134-3.647.073-3.933 3.616-4.994 2.068-.62 5.818-1.126 8.334-1.126s4.853-.45 5.193-1c1.809-2.927 2.5.076 2.5 10.865 0 10.35.255 12.19 2 14.407 2.64 3.356 2.523 3.84-1.542 6.432l-3.458 2.204zm-90 6.09c0-.275.636-1.026 1.412-1.67 1.087-.903 1.583-.873 2.16.127.412.714.381.965-.069.557-.45-.407-1.422-.24-2.16.373-.738.612-1.342.888-1.342.613zm5.508-.733c-.35-.567.051-.734.94-.393 1.733.665 2.05 1.382.612 1.382-.518 0-1.216-.445-1.552-.989zm32.243-2.583c-3.739-2.029-3.511-2.873.25-.928 1.65.853 3 1.764 3 2.025 0 .644-.108.607-3.25-1.097zm61.25.476c0-.603-.937-2.515-2.083-4.25l-2.082-3.154 2.577 3c2.326 2.706 3.386 5.5 2.088 5.5-.275 0-.5-.493-.5-1.096zm-101.87-3.408c-1.173-1.99-1.721-3.362-1.217-3.05.504.311 1.106.226 1.338-.19.231-.416.277-.177.102.531-.176.709.32 1.534 1.1 1.833.782.3 1.176 1.183.877 1.962-.642 1.673.107 1.789 2.675.415 1.03-.552 2.106-.627 2.39-.167.284.46-.026.858-.69.884-.662.026-1.933.351-2.823.723-1.168.487-2.212-.332-3.752-2.941zm-5.671 1.437c-.363-.587-.445-1.28-.183-1.543.262-.262.743.218 1.069 1.066.676 1.763.1 2.073-.886.477zm43.45-2.969c-3.485-1.795-3.58-1.992-3.168-6.657.449-5.102 3.216-10.704 6.668-13.502 2.957-2.396 2.845-11.04-.208-15.98-1.21-1.96-2.201-4.473-2.201-5.586 0-1.114-.675-2.284-1.5-2.601-.825-.317-1.5-1.22-1.5-2.007 0-2.05 10.802-11.645 12.414-11.026.743.285 1.625 2.237 1.96 4.338.644 4.025 2.184 5.015 7.847 5.043 1.496.007 4.789 1.476 7.317 3.264 3.298 2.331 6.485 3.548 11.28 4.305 6.485 1.024 6.77.978 9.682-1.563 4.512-3.938 8.068-5.218 9.546-3.436.66.794 2.531 1.444 4.16 1.444h2.962l-3.232 4.08c-4.596 5.803-6.907 6.425-14.489 3.902l-6.254-2.081-5.477 3.503c-3.419 2.188-5.709 4.43-6.096 5.972-.422 1.68-1.732 2.835-4.106 3.619-1.917.633-3.747 1.572-4.065 2.086-.728 1.179.458 5.093 1.373 4.531.373-.229.726.89.784 2.486l.107 2.902h-6.66c-6.205 0-6.875.222-9.795 3.25-2.292 2.376-3.219 4.367-3.446 7.407l-.312 4.157zm106.121.536c0-.55.437-1.675.97-2.5.533-.825.97-1.05.97-.5s-.437 1.675-.97 2.5c-.533.825-.97 1.05-.97.5zm-111.778-4c.011-2.2.216-2.983.455-1.739.24 1.244.23 3.044-.02 4s-.446-.061-.435-2.261zm-29.71 1.569a1.086 1.086 0 01.337-1.495c.501-.31 1.17.11 1.485.931.621 1.62-.881 2.085-1.821.564zm131.968-1.086c.345-.559 1.047-.757 1.559-.44 1.387.857 1.128 1.457-.628 1.457-.858 0-1.277-.458-.931-1.017zm2.966-1.408c-1.927-1.44-1.92-1.462.274-.909 1.379.347 2.25.112 2.25-.609 0-.646-.419-.917-.931-.6-.512.316-1.26.005-1.66-.691-.402-.697-.373-.945.062-.552.436.394 1.605.28 2.6-.252 2.526-1.352 3.1.16 1.077 2.841-1.537 2.038-1.88 2.11-3.672.772zm-139.014-.514c.319-.516-.217-1.45-1.191-2.075-1.528-.981-1.54-1.066-.086-.618.927.286 1.866.207 2.086-.175.22-.381.264-.13.096.557-.167.687.132 1.25.664 1.25.533 0 1-.788 1.04-1.75.059-1.484.19-1.446.862.25.566 1.427.33 2.194-.82 2.68-2.354.991-3.31.949-2.651-.119zm48.462-4.311c2.21-2.507 3.043-2.75 9.417-2.75 3.846 0 6.693.298 6.328.664-.365.365-3.422.564-6.792.443-5.161-.186-6.54.142-8.752 2.086l-2.625 2.307zm12.076.281c0-.533.675-.71 1.5-.393.825.317 1.5.752 1.5.969 0 .216-.675.393-1.5.393s-1.5-.436-1.5-.969zm8 .41c3.786-.824 9-.963 9-.24 0 .439-2.363.746-5.25.683-2.888-.064-4.575-.263-3.75-.443zm70.57-1.328c-.302-.488.142-1.46.986-2.16.844-.7 1.266-1.976.937-2.833-.33-.858-.279-1.24.112-.849s1.255.26 1.92-.292c1.312-1.089 4.31 1.519 3.117 2.711-.353.354-.642.118-.642-.524 0-.641-.675-1.166-1.5-1.166s-1.5.476-1.5 1.059c0 .582.52.738 1.154.345.716-.442.883-.274.441.441-.392.635-.21 1.155.405 1.155s.823.477.463 1.06c-.414.67-1.16.393-2.027-.75-1.294-1.706-1.374-1.68-1.404.44-.032 2.253-1.433 3.029-2.462 1.363zm-105.57-1.054c0-.518.445-1.216.988-1.552.567-.35.735.05.393.94-.664 1.733-1.381 2.05-1.381.612zm40 .125c-4.738-.67-4.165-1.957.663-1.489 2.66.259 5.287.583 5.837.722 1.8.453-3.936 1.13-6.5.767zm10.5-.184l-3-.764 2.69-.118c1.48-.065 2.97.332 3.31.882.34.55.479.946.309.881-.17-.065-1.66-.462-3.31-.881zm-84.5-.941c0-.518.375-1.173.833-1.456.459-.284.834.14.834.94 0 .801-.375 1.457-.834 1.457-.458 0-.833-.424-.833-.941zm66.812.257c.722-.288 1.585-.253 1.917.08.332.332-.258.568-1.312.525-1.165-.048-1.402-.285-.605-.605zM11.972 106.4c0-.204.9-.853 2-1.441 1.105-.592 2-.66 2-.152 0 .505-.9 1.154-2 1.441-1.1.288-2 .356-2 .152zm40-1.152c0-.575.787-1.662 1.75-2.417 1.619-1.27 1.64-1.222.283.628-.807 1.1-1.595 2.187-1.75 2.416-.156.23-.283-.053-.283-.627zm40.21-.689c.71-.77 1.447-1.249 1.64-1.066.593.563-.91 2.466-1.949 2.466-.539 0-.4-.63.31-1.4zm-80.477-.725c.679-.683 1.485-.99 1.793-.682.308.308-.247.867-1.233 1.242-1.425.543-1.54.428-.56-.56zm158.346-.459c.048-1.165.285-1.402.604-.604.289.722.253 1.584-.079 1.917-.332.332-.569-.259-.525-1.313zm-167-1c.048-1.165.285-1.402.604-.604.289.722.253 1.584-.079 1.917-.332.332-.569-.259-.525-1.313zm87.566-2.48c-1.02-.992-1.619-2.396-1.33-3.12.417-1.042.543-1.027.606.073.043.765.866 1.965 1.827 2.669.962.703 1.524 1.482 1.25 1.73-.274.25-1.333-.359-2.353-1.351zm67.67-.186c-.061-1.238.106-1.685.372-.994.266.69 1.008.942 1.648.558.64-.384.547.063-.208.994-1.721 2.122-1.68 2.135-1.812-.558zm-146.315.218c0-.533.675-.968 1.5-.968s1.5.176 1.5.393c0 .216-.675.652-1.5.968-.825.317-1.5.14-1.5-.393zm150.391-.202c-.41-.697-1.352-2.215-2.091-3.375-1.166-1.828-1.109-2.295.427-3.5 1.612-1.265 1.648-1.232.4.359-1.185 1.511-1.15 1.75.25 1.75.893 0 1.623-.477 1.623-1.06 0-.582.45-.78 1-.44s1 1.068 1 1.618-.403.75-.895.446c-1.234-.762-2.1 1.827-1.134 3.39.627 1.013.897.994 1.329-.091.342-.86.571-.924.62-.172.118 1.771-1.67 2.531-2.529 1.075zM9.972 99.017c0-.518.445-1.216.988-1.552.567-.35.735.05.393.94-.664 1.733-1.381 2.05-1.381.612zm161.158-1.06c0-1.374.227-1.937.504-1.25.278.688.278 1.813 0 2.5-.277.688-.504.126-.504-1.25zm-113.158-1c.589-1.1 1.295-2 1.57-2 .275 0 .019.9-.57 2s-1.296 2-1.57 2c-.276 0-.019-.9.57-2zm-55.842-1c0-1.374.227-1.937.504-1.25.278.688.278 1.813 0 2.5-.277.688-.504.126-.504-1.25zm11.48.5c.317-.824.753-1.5.969-1.5.216 0 .393.676.393 1.5 0 .826-.436 1.5-.969 1.5-.532 0-.71-.674-.393-1.5zm-4.36-1.463c-.1-1.323.383-1.676 1.792-1.308 2.387.624 2.407.946.137 2.16-1.407.754-1.822.57-1.93-.852zm159.88-.036c0-1.375.227-1.938.504-1.25.278.687.278 1.812 0 2.5-.277.687-.504.125-.504-1.25zm-165-2c0-1.375.227-1.938.504-1.25.278.687.278 1.812 0 2.5-.277.687-.504.125-.504-1.25zm87.842-.281c0-1.835 6.12-4.004 7.458-2.644.725.737.452 1.494-.9 2.492-2.41 1.78-6.558 1.875-6.558.152zm80.195-5.22c.02-1.65.244-2.203.498-1.23.253.973.237 2.323-.037 3-.274.677-.482-.12-.461-1.77zm-115.323-2.25c-1.244-1.585-1.208-1.62.378-.377.962.755 1.75 1.542 1.75 1.75 0 .823-.821.293-2.128-1.372zm62.256-3.753c1.445-1.648 3.148-4.009 3.785-5.246 1.099-2.137.97-2.25-2.55-2.25-2.054 0-4.526-.743-5.546-1.666-1.724-1.56-2.153-1.519-6.778.647-2.716 1.272-5.189 2.966-5.495 3.763-.445 1.161-1.781 1.308-6.694.738-4.682-.543-7.565-1.634-12.15-4.597-3.913-2.53-7.17-3.885-9.336-3.885-2.816 0-3.419-.422-3.929-2.75-1.036-4.73-1.207-4.974-3.859-5.48-2.726-.522-3.786.169-11.225 7.305-4.26 4.086-4.732 6.533-1.743 9.014.765.636 1.392 1.507 1.392 1.937 0 .43-11.1.844-24.667.922-13.568.077-25.071.39-25.564.694-.51.315-.624-1.109-.266-3.294.348-2.117.858-5.198 1.134-6.848.277-1.65 1.434-5.925 2.573-9.5C17.594 31.4 41.446 10.525 72.81 4.392c28.833-5.637 61.605 7.1 79.814 31.021 8.705 11.436 14.737 25.93 16.77 40.295l.602 4.25h-24.198c-23.654 0-24.255.05-26.762 2.246l-2.564 2.246zM45.775 54.58c-.363-2.54-4.269-3.457-5.133-1.204-.757 1.972 1.94 4.669 3.912 3.912.862-.331 1.392-1.507 1.22-2.708zm-3.26.447c-.317-.512-.118-1.214.44-1.56.56-.345 1.017.074 1.017.932 0 1.756-.6 2.015-1.457.628zm28.805 1.44c.82-.82 1.64-1.085 1.822-.589.181.497 1.905 1.055 3.83 1.241 3.173.307 3.53.082 3.816-2.411.27-2.35-.046-2.75-2.18-2.75-1.794 0-2.619.633-2.93 2.25-.372 1.929-.453 1.857-.57-.5-.148-2.986-2.086-3.861-2.215-1-.047 1.045-.282 1.246-.583.5-.278-.688-1.817-1.25-3.421-1.25-1.65 0-2.931-.543-2.949-1.25-.018-.715-.648-.436-1.472.653-1.3 1.716-1.504 1.74-2.076.25-1.226-3.197-2.22-1.613-1.159 1.847 1.146 3.733 2.429 4.472 3.395 1.955.499-1.301.819-1.222 2.025.5 1.705 2.434 2.672 2.549 4.667.554zm-3.348-2.01c0-.824.45-1.5 1-1.5s1 .676 1 1.5c0 .826-.45 1.5-1 1.5s-1-.674-1-1.5zm-27.566-4.392c-.212-.216-1.028.14-1.813.792-1.108.92-1.53.895-1.887-.108-.253-.71-.74-1.037-1.08-.725-.34.31-.078 2 .585 3.755l1.204 3.19 1.688-3.256c.928-1.79 1.514-3.432 1.303-3.648zm14.566 5.779c0-.398.274-1.438.61-2.312.935-2.436-3.891-1.549-5.034.926-.894 1.937-.935 1.93-1.32-.25-.54-3.073-2.256-2.852-2.256.29 0 2.337.32 2.522 4 2.305 2.2-.13 4-.562 4-.96zm-3-.886c0-.55.476-1 1.059-1 .582 0 .78.45.44 1s-.816 1-1.058 1c-.243 0-.441-.45-.441-1zm37 .2c0-.99.532-2.333 1.183-2.984.651-.65.852-1.515.446-1.92-.406-.407-1.163-.077-1.684.733-.832 1.294-1.058 1.294-1.89 0-1.568-2.44-2.103-.617-.819 2.787 1.318 3.491 2.764 4.215 2.764 1.384zm7.417.55c.466-1 .7-1 1.166 0 .321.687 1.72 1.25 3.107 1.25 1.89 0 2.372-.397 1.917-1.582-.334-.87-.636-2.108-.67-2.75-.035-.643-.563-.043-1.174 1.332l-1.11 2.5-.404-2.309c-.327-1.869-.674-2.083-1.826-1.127-1.018.844-1.423.86-1.423.058 0-.617-1.125-1.122-2.5-1.122-2 0-2.5.5-2.5 2.5 0 1.977.505 2.5 2.417 2.5 1.329 0 2.679-.563 3-1.25zm-3.417-1.31c0-.857.457-1.276 1.016-.93.56.345.758 1.047.441 1.559-.857 1.387-1.457 1.128-1.457-.628zm13.257-1.19c.705-.893.524-1.25-.635-1.25-1.122 0-1.598.847-1.543 2.75.045 1.567.318 2.105.634 1.25.306-.825 1-2.063 1.544-2.75zm8.743.49c1.2-.466 1.149-.598-.25-.661-.963-.044-1.75-.496-1.75-1.006s.787-1.133 1.75-1.384c1.077-.281.692-.502-1-.573-2.537-.107-2.748.174-2.718 3.634.026 3.153.225 3.497 1.25 2.162.67-.873 1.893-1.85 2.718-2.171zm7 .76c0-3.109-1.95-3.337-2.136-.25l-.136 2.25-.434-2.25c-.587-3.048-2.294-2.862-2.294.25 0 2 .5 2.5 2.5 2.5s2.5-.5 2.5-2.5zm10 0c0-3.108-1.976-3.347-2.064-.25-.061 2.196-.09 2.19-1.173-.25-1.107-2.495-1.11-2.495-1.506-.25-.218 1.237-.864 2.25-1.435 2.25-.602 0-.781-1.026-.427-2.44.337-1.34.16-2.717-.391-3.058-.988-.61-1.254.027-1.254 2.998 0 3.193.372 3.5 4.25 3.5 3.6 0 4-.25 4-2.5zm3.51.25l.744-2.25.442 2.25c.668 3.393 5.304 3.175 5.304-.25 0-2.297-.367-2.5-4.5-2.5s-4.5.203-4.5 2.5c0 3.111 1.515 3.262 2.51.25zm-11.115-10.71c3.2-1.217 6.605-4.588 6.605-6.54 0-2.202-4.359-1.867-6.5.5-2.448 2.704-6.972 2.592-8.943-.223-3.576-5.105-.603-12.777 4.953-12.777 1.38 0 3.28.9 4.222 2 3.393 3.963 7.655 1.765 4.857-2.505-3.48-5.311-15.723-5.274-19.216.058-2.394 3.653-2.898 10.53-1.036 14.13 2.607 5.042 9.467 7.482 15.058 5.357zm-73.612-11.79l.282-11.25H44.972V44.09l2.75-.316 2.75-.316zM76.972 42c0-1.734-.821-1.99-7.25-2.25-6.988-.283-7.25-.384-7.25-2.793 0-2.369.33-2.516 6.25-2.798 5.375-.256 6.25-.565 6.25-2.202 0-1.638-.875-1.947-6.25-2.203-5.484-.26-6.25-.543-6.25-2.297 0-1.774.765-2.034 6.75-2.296 5.93-.26 6.75-.533 6.75-2.25 0-1.802-.74-1.954-9.5-1.954h-9.5v23h10c9.259 0 10-.145 10-1.957zm23.663.48c2.876-2.015 3.792-6.18 1.97-8.961-.94-1.434-1.14-2.731-.561-3.644 1.452-2.295 1.067-4.78-1.072-6.918-1.686-1.687-3.333-2-10.5-2h-8.5v23h8.277c5.682 0 8.94-.464 10.386-1.477zM87.5 39c-.36-.583-.372-1.957-.024-3.052.481-1.518 1.508-1.988 4.314-1.976 4.993.02 7.027 1.372 5.581 3.706-1.253 2.023-8.812 3.035-9.87 1.323zm.077-10.634c-.965-2.514.213-3.41 4.486-3.41 4.22 0 6.46 2.406 3.806 4.086-2.361 1.495-7.624 1.066-8.292-.676zM2.13 74.957c0-1.374.227-1.937.504-1.25.278.688.278 1.813 0 2.5-.277.688-.504.126-.504-1.25zm169-1c0-1.374.227-1.937.504-1.25.278.688.278 1.813 0 2.5-.277.688-.504.126-.504-1.25zm-9.594-28.706c-.543-1.425-.428-1.54.56-.56.683.678.99 1.485.683 1.793-.308.308-.867-.247-1.243-1.233zm-2.564-4.293c-.589-1.1-.846-2-.57-2 .274 0 .981.9 1.57 2 .589 1.1.845 2 .57 2s-.981-.9-1.57-2zm-6.128-8.75c-1.244-1.586-1.208-1.622.378-.378 1.666 1.306 2.195 2.128 1.372 2.128-.207 0-.995-.788-1.75-1.75zm-131.372-1.25c.995-1.1 2.035-2 2.31-2 .275 0-.315.9-1.31 2-.996 1.1-2.035 2-2.31 2-.275 0 .314-.9 1.31-2zm124.372-6.75c-1.244-1.586-1.208-1.622.378-.378 1.666 1.306 2.195 2.128 1.372 2.128-.207 0-.995-.788-1.75-1.75zM30.972 21.58c0-.208.787-.995 1.75-1.75 1.586-1.244 1.621-1.208.377.378-1.306 1.665-2.127 2.195-2.127 1.372zm108.872-2.372c-1.244-1.586-1.208-1.622.378-.378 1.666 1.306 2.195 2.128 1.372 2.128-.207 0-.995-.788-1.75-1.75zm-8.431-5.806c-1.864-1.493-1.852-1.511.309-.464 1.237.6 2.25 1.3 2.25 1.555 0 .765-.519.544-2.559-1.09zM74.784 1.274c.722-.288 1.585-.253 1.917.08.332.332-.258.568-1.312.525-1.165-.048-1.402-.285-.605-.605zM85.734.25c1.243-.239 3.043-.23 4 .02.956.25-.062.446-2.262.435-2.2-.01-2.982-.215-1.738-.455z" />
    <path fill="#2d3528"
        d="M76.65 169.942c-19.831-2.422-37.884-11.829-52.32-27.262-30.434-32.533-29.342-84.339 2.455-116.534C58.383-5.846 109.783-7.426 143.796 22.55c10.756 9.48 21.837 27.585 25.648 41.908 2.47 9.278 3.065 26.48 1.247 36.034-3.548 18.655-11.956 33.793-26.324 47.393-7.177 6.794-10.46 9.043-19.751 13.535-15.833 7.654-31.82 10.495-47.966 8.522zm32.851-4.521c27.559-7.986 48.809-28.805 57.124-55.963 2.444-7.98 2.757-10.587 2.769-23 .015-15.907-1.778-24.201-7.98-36.921-15.941-32.69-53.757-51.958-88.604-45.145-31.154 6.091-54.344 26.19-64.431 55.84-14.645 43.05 9.463 90.074 53.624 104.595 14.655 4.82 32.162 5.038 47.498.594zm-34.378-4.349c-.741-.47-1.191-1.582-1-2.471.263-1.22.632-1.008 1.505.87.636 1.367 1.086 2.48 1 2.471-.086-.008-.763-.4-1.505-.87zm5.617-1.079c1.01-2.87 1.48-3.25 2.342-1.892 1.386 2.187 1.025 3.428-.997 3.428-1.264 0-1.708-.506-1.345-1.536zm5.247-.408c-.012-2.29.257-2.647 1.327-1.759.738.613 1.638.818 2 .456.362-.362.658.317.658 1.509s-.45 2.167-1 2.167-1.007-.563-1.015-1.25c-.01-.834-.339-.75-.985.25-.75 1.16-.973.85-.985-1.373zm4.985-.127c0-1.834.533-2.5 2-2.5s2 .666 2 2.5c0 1.833-.533 2.5-2 2.5s-2-.667-2-2.5zm3 0c0-.825-.45-1.5-1-1.5s-1 .675-1 1.5.45 1.5 1 1.5 1-.675 1-1.5zm5-1c0-2.973 2.53-3.404 3.274-.558.572 2.184.017 3.058-1.94 3.058-.756 0-1.334-1.084-1.334-2.5zm-29.967-.562c1.3-2.43 2.967-2.515 2.967-.151 0 1.07-.803 1.847-2.002 1.938-1.683.127-1.837-.158-.965-1.787zm35.634 1.395c-.367-.367-.667-1.544-.667-2.617 0-1.54.525-1.85 2.5-1.472 1.445.277 2.513.01 2.53-.633.017-.611.49-.324 1.05.639 1.44 2.471 2.813 2.173 2.306-.5-.398-2.097-.362-2.114.523-.25 1.419 2.986 1.286 3.5-.91 3.5-1.1 0-2.03-.563-2.067-1.25-.037-.688-.556-.238-1.153 1-1.07 2.217-2.809 2.887-4.112 1.583zm2.483-1.833c0-.523-.484-1.112-1.075-1.309-.591-.197-1.075.392-1.075 1.309 0 .916.484 1.505 1.075 1.308.591-.197 1.075-.786 1.075-1.308zm-42.293.743c-1.078-.229-1.467-1.018-1.133-2.296.54-2.062 2.742-2.62 3.771-.955.937 1.516-.79 3.644-2.638 3.251zm-6.19-.91c-1.05-1.05-.779-4.146.429-4.893.603-.372 1.801.029 2.664.891 1.292 1.292 1.341 1.841.282 3.118-1.395 1.68-2.333 1.926-3.375.884zm2.408-2.608c-.124-1.196-1.495-.965-1.925.325-.22.66.14 1.02.8.8.66-.22 1.166-.727 1.125-1.125zm54.04 1.606c-.063-.642-.39-1.885-.726-2.761-.448-1.166-.18-1.427 1-.975.982.377 1.638.089 1.681-.738.039-.747.457-.457.93.643 1.296 3.016 1.157 3.875-.417 2.569-1.124-.933-1.512-.804-1.884.627-.257.992-.52 1.278-.583.635zm-60.373-3.76c.285-1.496.972-2.235 1.785-1.923 1.041.4.973.913-.326 2.43-2.054 2.399-2.017 2.412-1.46-.507zm64.594-.139c-.331-.862-.089-2.08.538-2.707 1.408-1.407 4.742 1.469 3.685 3.179-.998 1.615-3.531 1.332-4.223-.472zm2.268-2.162c-1.016-1.016-1.855.514-1.021 1.864.63 1.02.865 1.02 1.204.004.232-.695.15-1.535-.183-1.868zm-72.604.789c0-2.826 1.939-3.574 3.846-1.483 1.54 1.688 1.539 1.728-.007.57-1.248-.934-1.84-.955-2.378-.083-.395.638-.097 1.553.66 2.033 1.09.69 1.013.876-.371.888-1.071.01-1.75-.738-1.75-1.925zm41.13-4.31c-5.484-4.089-6.935-5.692-6.56-7.25.483-2.008-3.238-4.358-26.812-16.936l-5.742-3.063-.008-5.413c-.008-5.601 2.756-11.852 7.213-16.309 1.654-1.654 1.908-2.822 1.406-6.48-.336-2.455-1.515-5.612-2.62-7.016-1.104-1.403-2.007-3.336-2.007-4.295 0-.958-.627-2.262-1.392-2.898-2.99-2.48-2.516-4.928 1.743-9.014 7.439-7.136 8.5-7.827 11.225-7.306 2.652.507 2.823.75 3.86 5.48.51 2.329 1.112 2.75 3.928 2.75 2.166 0 5.423 1.356 9.337 3.886 4.584 2.963 7.467 4.054 12.149 4.597 4.913.57 6.249.423 6.694-.738.306-.797 2.779-2.49 5.495-3.763 4.625-2.166 5.054-2.207 6.778-.647 1.02.923 3.492 1.666 5.547 1.666 3.527 0 3.65.108 2.524 2.25-.65 1.237-2.465 3.728-4.035 5.534l-2.853 3.285.022 16.715c.02 15.05.217 16.965 1.978 19.216 2.734 3.496 2.474 5.703-.879 7.437-1.583.819-3.147 2.187-3.474 3.04-.328.854-1.732 1.985-3.122 2.513-1.78.677-2.525 1.705-2.525 3.485 0 1.388-.442 2.525-.981 2.525-.54 0-1.288 1.224-1.664 2.72-1.12 4.462-4.426 9.28-6.368 9.28-.998 0-4.984-2.363-8.857-5.25zm13.537-3.838c.316-1.576 1.195-3.382 1.953-4.011.76-.63 1.38-1.935 1.38-2.9 0-.966.691-2.33 1.537-3.03 1.21-1.005 1.475-3.106 1.25-9.873l-.287-8.597-23.75-.269-23.75-.268v9.616l12 6.756c10.027 5.645 12 7.143 12 9.112 0 1.728 1.667 3.597 6.25 7.006l6.25 4.65 2.297-2.662c1.263-1.464 2.555-3.953 2.87-5.53zm14.29-18.254c.024-.463-.857-1.986-1.957-3.385-1.745-2.218-2-4.056-2-14.407 0-10.789-.691-13.792-2.5-10.865-.34.55-2.677 1-5.193 1-2.516 0-6.266.506-8.334 1.126-3.543 1.061-3.75 1.347-3.616 4.994l.143 3.868 4.309.006c3.336.004 5.197.72 8.25 3.173l3.94 3.168v16.573l3.459-2.204c1.901-1.212 3.476-2.583 3.5-3.046zm-54.7-14.407c2.934-3.042 3.573-3.25 9.939-3.25 3.742 0 6.804-.24 6.804-.533 0-.292-.69-2.18-1.531-4.197-1.938-4.636-1.468-5.786 2.961-7.247 2.453-.81 3.765-1.951 4.19-3.647.387-1.541 2.677-3.784 6.096-5.972l5.477-3.503 6.254 2.081c7.582 2.523 9.893 1.901 14.489-3.901l3.232-4.081h-2.962c-1.629 0-3.5-.65-4.16-1.444-1.478-1.782-5.034-.502-9.546 3.436-2.912 2.54-3.197 2.587-9.683 1.563-4.794-.757-7.981-1.974-11.279-4.305-2.528-1.788-5.821-3.257-7.317-3.264-5.663-.028-7.203-1.018-7.846-5.043-.336-2.101-1.218-4.053-1.96-4.338-1.613-.619-12.415 8.976-12.415 11.026 0 .787.675 1.69 1.5 2.007.825.317 1.5 1.487 1.5 2.6 0 1.114.99 3.628 2.2 5.586 3.054 4.94 3.166 13.585.209 15.981-3.452 2.798-6.22 8.4-6.668 13.502-.411 4.665-.317 4.862 3.168 6.657l3.59 1.85.313-4.157c.227-3.04 1.154-5.03 3.446-7.407zm42.243.28c-2.554-2.093-4.114-2.476-10.5-2.576-7.438-.117-7.473-.13-4.191-1.563 2.734-1.194 3.194-1.83 2.649-3.668-.363-1.223-1.29-2.723-2.06-3.334-.769-.61-1.398-2.298-1.398-3.75s-.212-2.64-.472-2.64c-.259 0-2.962 1.102-6.006 2.448l-5.534 2.448 2.006 5.09c1.103 2.798 2.006 5.226 2.006 5.393 0 .168 2.075.336 4.611.375 6.636.1 8.247 2.202 1.839 2.399-10.544.324-11.442.156-9.009-1.684 1.766-1.336 1.309-1.468-5.076-1.468-6.191 0-7.293.294-9.365 2.5l-2.349 2.5 22.925-.005 22.924-.005-3-2.46zM98.53 92.526c1.351-.998 1.624-1.755.9-2.492-1.339-1.36-7.46.81-7.46 2.644 0 1.723 4.15 1.627 6.56-.152zm26.185 56.875c-.524-2.74.084-3.02 2.582-1.192 1.596 1.168 1.583 1.327-.204 2.442-1.663 1.038-1.971.876-2.378-1.25zm-80.243.56c-1.068-1.728 1.896-5 3.547-3.917 1.243.816 1.202 1.144-.283 2.282-.954.732-1.441 1.623-1.083 1.981.358.359.153.652-.456.652-.61 0-1.386-.45-1.725-.999zm84.535-2.459c-.664-.8-.918-1.926-.563-2.5.947-1.532 3.225-1.271 3.884.445.33.86.058 1.387-.643 1.25-.668-.131-1.102.324-.964 1.012.33 1.647-.232 1.58-1.714-.207zm-88.445-.396c-.29-.47.093-1.7.85-2.736 1.287-1.76 1.366-1.706 1.218.852-.158 2.711-1.053 3.526-2.068 1.884zm92.373-3.312c-1.145-2.233-1.118-2.26.61-.61.994.95 1.533 2.001 1.197 2.336-.335.336-1.148-.441-1.807-1.726zm-96.373.312c-.29-.47.061-1.657.78-2.64 1.082-1.48 1.634-1.579 3.218-.572 1.572 1 1.6 1.12.16.671-1.57-.488-2.217.428-1.868 2.644.163 1.03-1.64.948-2.29-.103zm98.445-1.604c-.664-.8-.918-1.926-.563-2.5.739-1.195 2.586-1.42 2.408-.293-.33 2.096.242 3.291 1.273 2.654.716-.442.883-.274.441.441-.958 1.55-2.102 1.454-3.559-.302zm5.33-2.293c.474-.787.174-1.25-.807-1.25-.858 0-1.56-.675-1.56-1.5 0-1.845 1.064-1.906 3.4-.198 1.709 1.25 1.709 1.362 0 2.75-1.098.89-1.494.967-1.032.198zm-108.334-1.095c.017-.36.633-1.448 1.368-2.417 1.061-1.398 1.554-1.498 2.393-.488.788.95.44 1.564-1.368 2.417-1.334.63-2.41.85-2.393.488zm-2.695-3.59c.303-.79.076-1.594-.503-1.787-.606-.202-.37-.919.556-1.687 1.367-1.135 1.61-1.092 1.61.286 0 .892.505 1.623 1.122 1.623.776 0 .738.463-.122 1.5-1.585 1.909-3.388 1.952-2.663.064zm113.999-2.133c-.331-.862-.041-2.1.643-2.75.983-.933 1.096-.688.535 1.166-.632 2.085-.462 2.27 1.512 1.643 1.512-.48 2.005-.35 1.54.401-1.004 1.625-3.536 1.35-4.23-.46zm-118.112-1.609c-.86-.859-.88-1.533-.078-2.5.851-1.025.634-1.323-.965-1.323-2.95 0-3.815-2.053-1.584-3.756 1.8-1.373 1.773-1.412-.498-.732-1.953.584-2.286.417-1.782-.897.341-.888.158-1.615-.408-1.615-.565 0-.75-.45-.41-1 1.103-1.784 3.49-1.147 2.81.75-.345.962-.275 1.431.156 1.042 1.08-.975 4.421 3.34 3.813 4.925-.27.705.204 1.283 1.056 1.283 2.183 0 2.961 1.672 1.108 2.383-1 .384-1.296.19-.84-.55.45-.726.262-.867-.516-.387-.672.416-.98 1.385-.686 2.155.655 1.707.363 1.762-1.176.222zm-.224-5.823c0-.55-.424-1-.941-1-.518 0-1.22.45-1.56 1-.34.55.084 1 .942 1 .857 0 1.559-.45 1.559-1zm121.364 3.506c-.346-.902-.15-2.12.436-2.706 1.523-1.524 4.41-.132 4.012 1.935-.443 2.302-3.647 2.858-4.448.771zm3.636-.447c0-1.18-1.95-2.442-2.667-1.726-.716.716.546 2.667 1.726 2.667a.944.944 0 00.94-.941zm.25-3.722c-.688-.277-1.25-.965-1.25-1.528 0-.563.739-.74 1.641-.394 1.247.479 1.387.323.583-.645-1.227-1.479.676-4.77 2.759-4.77 1.008 0 1.012-.302.017-1.5-1.455-1.753-.665-1.927 2.078-.458 2.809 1.503.762 5.317-2.389 4.454-1.962-.538-2.018-.46-.533.744 1.201.974 1.394 1.812.7 3.051-.987 1.764-1.476 1.906-3.606 1.046zm-133.753-7.342c-.42-.68-.145-1.605.625-2.092 1.925-1.22 4.116-1.117 3.686.172-.197.59-.747 1.002-1.221.914-.475-.088-1.195.376-1.6 1.032-.568.918-.91.912-1.49-.026zm138.003-3.995c-.782-1.266.541-1.266 2.5 0 1.293.835 1.266.971-.191.984-.93.009-1.97-.434-2.31-.984zm-138.78-1.414c-1.598-1.213-1.615-1.413-.168-1.968 2.674-1.026 3.448-.716 3.448 1.382 0 2.322-.803 2.465-3.28.586zm139.736-.657c-.375-.607-.115-1.627.578-2.267.957-.884 1.103-.883.606.002-.359.641-.11 1.346.554 1.567.88.294.901.592.076 1.102-.623.385-1.439.203-1.814-.404zm3.903.406c.36-.64.088-1.366-.603-1.613-.69-.247-.911-.818-.49-1.269.422-.451 1.3-.288 1.95.363.912.911.874 1.471-.163 2.434-.865.803-1.113.834-.694.085zm-146.735-3.135c-.969-1.567-.13-2.835 2.296-3.47 1.157-.302 2.176.077 2.504.932.308.803.115 1.17-.436.83-.543-.336-.988-.107-.988.508s-.412.863-.915.552c-.503-.31-1.095-.022-1.317.642-.312.938-.567.94-1.144.006zm144.74-2.419c-.882-1.429.61-2.6 2.637-2.07 2.645.69 2.58 3.208-.077 3.008-1.142-.086-2.294-.508-2.56-.938zm-146.013-3.308c-.659-1.718 1.059-3.43 3.468-3.458 1.985-.023.995 4.404-1.072 4.798-.964.184-2.042-.42-2.396-1.34zm3.42-1.287c.244-.73-.214-.954-1.188-.58-.87.334-1.583 1.047-1.583 1.584 0 1.314 2.273.491 2.77-1.004zm144.729.814c-1.928-.829-1.922-.862.19-.93 1.206-.039 2.47.38 2.81.93.73 1.182-.248 1.182-3 0zm-.149-3.527c-.733-1.91 1.272-3.555 3.357-2.755 1.888.724 1.186 3.678-.973 4.094-.957.184-2.03-.418-2.384-1.34zm3.457-.548c-.197-.592-.786-1.075-1.308-1.075-.523 0-1.111.483-1.308 1.075-.198.59.391 1.075 1.308 1.075s1.505-.484 1.308-1.075zm-151.419-.498c.302-.785 0-1.434-.67-1.443-.771-.01-.668-.371.28-.984 2.17-1.402 3.298-1.218 2.664.435-.303.79-.025 1.61.617 1.825.643.214.132.66-1.135.991-1.73.453-2.167.248-1.756-.824zm150.177-3.325c-1.453-.57-1.613-.955-.643-1.555 1.044-.645 1.031-.962-.066-1.657-.998-.632-.776-.864.834-.875 1.205-.009 2.469.435 2.809.985.34.55.093 1-.548 1s-.907.675-.59 1.5c.316.825.477 1.468.356 1.43-.12-.04-1.088-.412-2.152-.828zM10.722 93.295c.687-.277 1.812-.277 2.5 0 .687.278.125.505-1.25.505s-1.938-.227-1.25-.505z" />
</svg>